<svg width="989" height="500" viewBox="0 0 989 500" fill="none" xmlns="http://www.w3.org/2000/svg">
<g opacity="0.85">
<path fill-rule="evenodd" clip-rule="evenodd" d="M656.276 209.665C788.165 172.744 862.235 35.0383 1000.3 40.2562C1130.8 45.1883 1197.71 151.743 1257.47 232.386C1319.35 315.891 1404.65 415.488 1344.7 505.005C1283.48 596.422 1107.39 603.926 979.29 647.75C900.428 674.729 818.756 683.593 740.582 711.678C610.753 758.321 513.23 874.837 372.858 865.62C233.77 856.488 111.162 765.882 84.9336 668.628C59.1785 573.128 187.21 489.134 246.683 397.762C288.494 333.526 297.222 252.117 381.115 213.59C462.38 176.271 566.966 234.666 656.276 209.665Z" fill="url(#paint0_linear_34_33)"/>
<path fill-rule="evenodd" clip-rule="evenodd" d="M760.758 313.533C870.192 258.862 898.569 140.74 1025.53 116.294C1145.54 93.1872 1236.49 159.086 1313.61 207.085C1393.47 256.788 1499.17 313.709 1470 392.918C1440.21 473.808 1282.28 515.569 1178.25 574.621C1114.2 610.975 1042.47 634.367 979.362 671.406C874.551 732.92 818.865 840.021 688.673 861.952C559.673 883.682 422.608 841.14 371.265 773.842C320.847 707.757 413.46 618.698 441.674 538.2C461.51 481.609 446.418 418.976 511.774 372.959C575.081 328.384 686.655 350.554 760.758 313.533Z" fill="url(#paint1_linear_34_33)"/>
<path fill-rule="evenodd" clip-rule="evenodd" d="M843.611 404.779C928.654 371.369 961.721 279.264 1056.26 271.795C1145.61 264.735 1204.49 326.341 1255.26 372.256C1307.83 419.801 1378.35 475.612 1348.83 536.404C1318.68 598.486 1199.89 616.89 1118.29 654.333C1068.05 677.385 1013.63 689.296 964.003 712.987C881.583 752.333 829.907 832.976 733.3 838.117C637.577 843.211 542.824 795.938 512.772 737C483.262 679.124 559.768 616.499 588.73 554.581C609.09 511.052 604.798 459.329 657.003 428.646C707.572 398.925 786.024 427.403 843.611 404.779Z" fill="url(#paint2_linear_34_33)"/>
</g>
<defs>
<linearGradient id="paint0_linear_34_33" x1="1203.19" y1="558.346" x2="465.367" y2="-525.615" gradientUnits="userSpaceOnUse">
<stop stop-color="#FFCB67"/>
<stop offset="1" stop-color="#FFE6A5" stop-opacity="0"/>
</linearGradient>
<linearGradient id="paint1_linear_34_33" x1="1390.85" y1="689.662" x2="532.665" y2="-193.7" gradientUnits="userSpaceOnUse">
<stop stop-color="#FFE8BA"/>
<stop offset="0.952751" stop-color="#FFB900" stop-opacity="0"/>
</linearGradient>
<linearGradient id="paint2_linear_34_33" x1="1413.88" y1="785.514" x2="817.738" y2="21.3993" gradientUnits="userSpaceOnUse">
<stop stop-color="#FF8A00"/>
<stop offset="1" stop-color="#F87700" stop-opacity="0"/>
</linearGradient>
</defs>
</svg>
