<svg width="19" height="17" viewBox="0 0 19 17" fill="none" xmlns="http://www.w3.org/2000/svg">
<path id="Vector" d="M9.77708 0.22287C9.77708 0.22287 4.18847 4.95258 1.06532 7.51407C0.965942 7.59896 0.885874 7.70339 0.830311 7.82058C0.774749 7.93776 0.744933 8.06509 0.742798 8.1943C0.742798 8.4292 0.83798 8.65449 1.00741 8.82059C1.17683 8.9867 1.40662 9.08001 1.64623 9.08001H3.45308V15.28C3.45308 15.5149 3.54827 15.7402 3.71769 15.9063C3.88712 16.0724 4.11691 16.1657 4.35651 16.1657H7.0668C7.3064 16.1657 7.53619 16.0724 7.70562 15.9063C7.87504 15.7402 7.97023 15.5149 7.97023 15.28V11.7372H11.5839V15.28C11.5839 15.5149 11.6791 15.7402 11.8485 15.9063C12.018 16.0724 12.2478 16.1657 12.4874 16.1657H15.1977C15.4373 16.1657 15.667 16.0724 15.8365 15.9063C16.0059 15.7402 16.1011 15.5149 16.1011 15.28V9.08001H17.9079C18.1475 9.08001 18.3773 8.9867 18.5468 8.82059C18.7162 8.65449 18.8114 8.4292 18.8114 8.1943C18.8101 8.06261 18.7783 7.93293 18.7183 7.81508C18.6584 7.69722 18.5719 7.59429 18.4654 7.51407C15.3639 4.95258 9.77708 0.22287 9.77708 0.22287Z" fill="#414040"/>
</svg>
