<svg width="21" height="21" viewBox="0 0 21 21" fill="none" xmlns="http://www.w3.org/2000/svg">
<path id="Vector" fill-rule="evenodd" clip-rule="evenodd" d="M5.98752 4.85093C5.98752 3.65235 6.46366 2.50285 7.31118 1.65533C8.15871 0.8078 9.3082 0.331665 10.5068 0.331665C11.7054 0.331665 12.8549 0.8078 13.7024 1.65533C14.5499 2.50285 15.0261 3.65235 15.0261 4.85093C15.0261 6.04951 14.5499 7.19901 13.7024 8.04653C12.8549 8.89406 11.7054 9.3702 10.5068 9.3702C9.3082 9.3702 8.15871 8.89406 7.31118 8.04653C6.46366 7.19901 5.98752 6.04951 5.98752 4.85093ZM5.98752 11.6298C4.48929 11.6298 3.05243 12.225 1.99302 13.2844C0.933609 14.3438 0.33844 15.7807 0.33844 17.2789C0.33844 18.1778 0.695542 19.04 1.33119 19.6756C1.96683 20.3113 2.82895 20.6684 3.72789 20.6684H17.2857C18.1846 20.6684 19.0467 20.3113 19.6824 19.6756C20.318 19.04 20.6751 18.1778 20.6751 17.2789C20.6751 15.7807 20.08 14.3438 19.0206 13.2844C17.9611 12.225 16.5243 11.6298 15.0261 11.6298H5.98752Z" fill="#414040"/>
</svg>
