<svg width="12" height="18" viewBox="0 0 12 18" fill="none" xmlns="http://www.w3.org/2000/svg">
<path d="M1.26873 15.678C1.18289 15.7524 1.11578 15.8399 1.07124 15.9355C1.02669 16.0311 1.00558 16.1329 1.00912 16.2352C1.01265 16.3374 1.04076 16.4381 1.09183 16.5315C1.14291 16.6249 1.21595 16.7091 1.30679 16.7794C1.39763 16.8496 1.50449 16.9046 1.62127 16.941C1.73804 16.9775 1.86245 16.9948 1.98738 16.9919C2.11231 16.989 2.23533 16.966 2.3494 16.9242C2.46347 16.8824 2.56636 16.8226 2.65221 16.7482L10.7399 9.73839C10.9069 9.59378 11 9.40232 11 9.20331C11 9.0043 10.9069 8.81284 10.7399 8.66822L2.65221 1.65763C2.56693 1.58164 2.46406 1.52028 2.34957 1.47711C2.23508 1.43394 2.11125 1.40982 1.98528 1.40616C1.85931 1.4025 1.7337 1.41936 1.61576 1.45577C1.49781 1.49218 1.38988 1.54741 1.29823 1.61825C1.20658 1.68909 1.13304 1.77413 1.08189 1.86843C1.03073 1.96274 1.00297 2.06442 1.00023 2.16758C0.997482 2.27074 1.0198 2.37332 1.0659 2.46935C1.11199 2.56539 1.18094 2.65297 1.26873 2.72701L8.73987 9.20331L1.26873 15.678Z" fill="#414040" stroke="#414040"/>
</svg>
