<svg width="26" height="25" viewBox="0 0 26 25" fill="none" xmlns="http://www.w3.org/2000/svg">
<path id="Vector" d="M13.0273 0.297974C6.28828 0.297974 0.825256 5.761 0.825256 12.5C0.825256 19.239 6.28828 24.702 13.0273 24.702C19.7663 24.702 25.2293 19.239 25.2293 12.5C25.2293 5.761 19.7663 0.297974 13.0273 0.297974ZM8.64217 5.14482C8.89358 5.12999 9.12082 5.28026 9.29309 5.54698L10.9613 8.71068C11.137 9.08556 11.0372 9.48697 10.7751 9.75482L10.011 10.5189C9.96388 10.5836 9.93284 10.6563 9.93209 10.7364C10.2251 11.8707 11.114 12.917 11.8983 13.6365C12.6825 14.356 13.5254 15.3301 14.6196 15.5609C14.7548 15.5986 14.9205 15.6122 15.0173 15.5222L15.905 14.6181C16.2114 14.3858 16.6547 14.2732 16.9819 14.4632H16.9968L20.0071 16.2402C20.4489 16.5171 20.4947 17.0525 20.1783 17.3781L18.105 19.4351C17.7988 19.7491 17.392 19.8547 16.9968 19.8552C15.2489 19.8028 13.5974 18.9449 12.2409 18.0633C10.0142 16.4434 7.97171 14.4343 6.68945 12.007C6.19766 10.9891 5.61996 9.69042 5.67509 8.55433C5.68001 8.12693 5.79565 7.70822 6.09663 7.43274L8.17002 5.35935C8.33153 5.22191 8.49132 5.15373 8.64217 5.14482Z" fill="#414040"/>
</svg>
