<svg width="25" height="25" viewBox="0 0 25 25" fill="none" xmlns="http://www.w3.org/2000/svg">
<path d="M12.5006 0C5.59403 0 2.05637e-06 5.73538 2.05637e-06 12.8165C-0.00150309 15.5069 0.823291 18.1294 2.35738 20.3121C3.89147 22.4949 6.05697 24.1269 8.54668 24.9768C9.17171 25.0883 9.40672 24.7038 9.40672 24.3667C9.40672 24.063 9.39047 23.0543 9.39047 21.9803C6.25031 22.5737 5.43777 21.1959 5.18776 20.4743C5.0465 20.1052 4.43772 18.9684 3.90645 18.6634C3.46893 18.4237 2.84389 17.8303 3.8902 17.8149C4.87525 17.7983 5.57778 18.7441 5.81279 19.1286C6.93785 21.0665 8.73419 20.5218 9.45297 20.186C9.56298 19.3529 9.8905 18.7928 10.2505 18.4724C7.46912 18.152 4.56273 17.0459 4.56273 12.1436C4.56273 10.7492 5.0465 9.59698 5.84404 8.69855C5.71904 8.37814 5.28152 7.06445 5.96905 5.30218C5.96905 5.30218 7.01535 4.96639 9.40672 6.61715C10.4244 6.32758 11.4758 6.18183 12.5319 6.18395C13.5944 6.18395 14.657 6.3275 15.657 6.61587C18.0484 4.94973 19.0947 5.30346 19.0947 5.30346C19.7822 7.06573 19.3447 8.37942 19.2197 8.69983C20.016 9.59699 20.501 10.7338 20.501 12.1436C20.501 17.0626 17.5796 18.152 14.797 18.4724C15.2508 18.8723 15.642 19.6413 15.642 20.8435C15.642 22.557 15.6258 23.9348 15.6258 24.368C15.6258 24.7038 15.8608 25.1037 16.4858 24.9755C18.967 24.1163 21.123 22.4811 22.6503 20.2999C24.1776 18.1188 24.9994 15.5015 25 12.8165C25 5.73538 19.406 0 12.4994 0H12.5006Z" fill="#414040"/>
</svg>
