<svg width="24" height="24" viewBox="0 0 24 24" fill="none" xmlns="http://www.w3.org/2000/svg">
<path d="M22.0703 0.0614H1.75781C1.29694 0.0567097 0.853021 0.235042 0.523474 0.557265C0.193927 0.879489 0.00566626 1.31928 0 1.78015V22.1747C0.00669098 22.6349 0.195403 23.0737 0.524838 23.395C0.854273 23.7164 1.2976 23.8942 1.75781 23.8895H22.0703C22.5312 23.8932 22.9748 23.7142 23.3042 23.3918C23.6336 23.0694 23.8219 22.6297 23.8281 22.1688V1.77429C23.8199 1.31478 23.6306 0.877078 23.3015 0.556333C22.9723 0.235589 22.5299 0.0577239 22.0703 0.0614ZM7.06445 20.3739H3.52734V8.99304H7.06445V20.3739ZM5.30664 7.44226C4.90095 7.44265 4.50426 7.3227 4.16676 7.09759C3.82925 6.87248 3.56609 6.55233 3.41057 6.17763C3.25506 5.80294 3.21416 5.39053 3.29307 4.99259C3.37198 4.59465 3.56715 4.22905 3.85388 3.94205C4.1406 3.65505 4.50602 3.45953 4.90388 3.38025C5.30175 3.30096 5.71419 3.34146 6.08904 3.49662C6.46388 3.65178 6.78428 3.91463 7.00971 4.25192C7.23514 4.58921 7.35547 4.98579 7.35547 5.39148C7.35496 5.66112 7.30128 5.92801 7.1975 6.17689C7.09372 6.42576 6.94188 6.65172 6.75067 6.84184C6.55946 7.03196 6.33263 7.18251 6.08317 7.28487C5.83371 7.38722 5.56652 7.43938 5.29688 7.43835L5.30664 7.44226ZM20.3125 20.3739H16.7754V14.8368C16.7754 13.5184 16.752 11.8212 14.9375 11.8212C13.123 11.8212 12.8145 13.2587 12.8145 14.7509V20.3739H9.2832V8.99304H12.6738V10.5555H12.7207C13.1934 9.66101 14.3457 8.71765 16.0664 8.71765C19.6484 8.70984 20.3125 11.0673 20.3125 14.1239V20.3739Z" fill="#414040"/>
</svg>
