<svg width="22" height="19" viewBox="0 0 22 19" fill="none" xmlns="http://www.w3.org/2000/svg">
<path id="Vector" d="M19.6963 3.89201H11.2461L8.52113 1.15711C8.37335 1.00777 8.19751 0.889355 8.0038 0.808732C7.81008 0.728109 7.60234 0.686883 7.39263 0.687445H2.1353C1.7119 0.687445 1.30583 0.856256 1.00644 1.15674C0.707046 1.45723 0.538849 1.86478 0.538849 2.28973V16.7724C0.539641 17.1808 0.701712 17.5722 0.989548 17.8609C1.27738 18.1496 1.66751 18.312 2.07444 18.3126H19.7851C20.1848 18.312 20.568 18.1525 20.8506 17.8688C21.1332 17.5851 21.2922 17.2006 21.2928 16.7994V5.4943C21.2928 5.06935 21.1246 4.6618 20.8252 4.36131C20.5258 4.06083 20.1197 3.89201 19.6963 3.89201ZM2.1353 2.28973H7.39263L8.98909 3.89201H2.1353V2.28973Z" fill="#414040"/>
</svg>
