<svg width="1440" height="863" viewBox="0 0 1440 863" fill="none" xmlns="http://www.w3.org/2000/svg">
<g opacity="0.85">
<path fill-rule="evenodd" clip-rule="evenodd" d="M594.129 276.863C774.024 201.063 954.647 245.55 1113.11 133.552C1262.9 27.6884 1268.91 -104.009 1284.17 -210.825C1299.97 -321.434 1332.3 -462.36 1201.04 -482.038C1066.99 -502.134 855.241 -369.829 675.095 -302.133C564.192 -260.457 462.318 -203.099 351.47 -162.786C167.378 -95.8356 -26.3471 -106.187 -184.802 10.5944C-341.808 126.308 -424.037 289.754 -388.64 382.675C-353.881 473.921 -146.483 436.177 -14.5175 457.61C78.2574 472.677 143.893 526.433 268.557 489.412C389.314 453.551 472.312 328.191 594.129 276.863Z" fill="url(#paint0_linear_34_32)"/>
<path fill-rule="evenodd" clip-rule="evenodd" d="M646.074 117.971C811.682 72.977 925.356 138.679 1090.97 57.4613C1247.5 -19.3081 1309.38 -139.571 1367.21 -235.688C1427.1 -335.216 1512.39 -460.35 1424.26 -496.465C1334.26 -533.347 1120.54 -440.773 958.284 -403.264C858.394 -380.173 758.316 -341.423 659.061 -319.577C494.222 -283.295 356.004 -319.411 188.317 -233.793C22.1643 -148.958 -109.716 -9.96884 -124.168 80.3265C-138.359 168.994 30.9124 162.766 118.793 200.591C180.575 227.183 205.486 285.619 313.485 268.697C418.099 252.305 533.932 148.439 646.074 117.971Z" fill="url(#paint1_linear_34_32)"/>
<path fill-rule="evenodd" clip-rule="evenodd" d="M675.075 -21.5244C797.596 -63.2461 899.069 -20.5807 1015.08 -89.0439C1124.73 -153.757 1151.9 -245.717 1180.22 -319.643C1209.55 -396.195 1254.32 -492.953 1178.32 -515.088C1100.7 -537.693 948.788 -458.375 827.562 -422.352C752.932 -400.175 680.971 -366.429 606.618 -345.203C483.135 -309.953 367.626 -329.516 250.772 -257.698C134.986 -186.537 55.9722 -77.1577 60.8151 -9.75653C65.5706 56.4293 197.955 43.1383 274.069 66.5483C327.58 83.0062 357.738 124.867 439.873 106.827C519.434 89.3534 592.109 6.72749 675.075 -21.5244Z" fill="url(#paint2_linear_34_32)"/>
</g>
<defs>
<linearGradient id="paint0_linear_34_32" x1="998.68" y1="-410.926" x2="1222.51" y2="914.125" gradientUnits="userSpaceOnUse">
<stop stop-color="#FFCB67"/>
<stop offset="1" stop-color="#FFE6A5" stop-opacity="0"/>
</linearGradient>
<linearGradient id="paint1_linear_34_32" x1="1129.47" y1="-655.364" x2="1172.4" y2="659.469" gradientUnits="userSpaceOnUse">
<stop stop-color="#FFE8BA"/>
<stop offset="0.952751" stop-color="#FFB900" stop-opacity="0"/>
</linearGradient>
<linearGradient id="paint2_linear_34_32" x1="1085.14" y1="-751.447" x2="1203.86" y2="248.691" gradientUnits="userSpaceOnUse">
<stop stop-color="#FF8A00"/>
<stop offset="1" stop-color="#F87700" stop-opacity="0"/>
</linearGradient>
</defs>
</svg>
