<svg width="17" height="16" viewBox="0 0 17 16" fill="none" xmlns="http://www.w3.org/2000/svg">
<path d="M3.70833 2.16667C3.13333 2.16667 2.66667 2.63333 2.66667 3.20833V12.7917C2.66667 13.3667 3.13333 13.8333 3.70833 13.8333H13.2917C13.8667 13.8333 14.3333 13.3667 14.3333 12.7917V9.66667C14.3333 9.44565 14.4211 9.23369 14.5774 9.07741C14.7337 8.92113 14.9457 8.83333 15.1667 8.83333C15.3877 8.83333 15.5996 8.92113 15.7559 9.07741C15.9122 9.23369 16 9.44565 16 9.66667V12.7917C16 13.51 15.7147 14.1988 15.2067 14.7067C14.6988 15.2147 14.01 15.5 13.2917 15.5H3.70833C2.99004 15.5 2.30116 15.2147 1.79325 14.7067C1.28534 14.1988 1 13.51 1 12.7917V3.20833C1 2.49004 1.28534 1.80116 1.79325 1.29325C2.30116 0.785341 2.99004 0.5 3.70833 0.5H6.83333C7.05435 0.5 7.26631 0.587797 7.42259 0.744078C7.57887 0.900358 7.66667 1.11232 7.66667 1.33333C7.66667 1.55435 7.57887 1.76631 7.42259 1.92259C7.26631 2.07887 7.05435 2.16667 6.83333 2.16667H3.70833ZM10.1667 2.16667C9.94565 2.16667 9.73369 2.07887 9.57741 1.92259C9.42113 1.76631 9.33333 1.55435 9.33333 1.33333C9.33333 1.11232 9.42113 0.900358 9.57741 0.744078C9.73369 0.587797 9.94565 0.5 10.1667 0.5H15.1667C15.3877 0.5 15.5996 0.587797 15.7559 0.744078C15.9122 0.900358 16 1.11232 16 1.33333V6.33333C16 6.55435 15.9122 6.76631 15.7559 6.92259C15.5996 7.07887 15.3877 7.16667 15.1667 7.16667C14.9457 7.16667 14.7337 7.07887 14.5774 6.92259C14.4211 6.76631 14.3333 6.55435 14.3333 6.33333V3.345L10.7558 6.9225C10.5987 7.0743 10.3882 7.15829 10.1697 7.15639C9.95117 7.1545 9.74216 7.06686 9.58765 6.91235C9.43314 6.75784 9.3455 6.54883 9.34361 6.33033C9.34171 6.11184 9.4257 5.90134 9.5775 5.74417L13.155 2.16667H10.1667Z" fill="#1E1E1E" stroke="#312316" stroke-width="0.75" stroke-linejoin="round"/>
</svg>
